<svg width="93" height="30" viewBox="0 0 93 30" fill="none" xmlns="http://www.w3.org/2000/svg">
<mask id="mask0_2_2" style="mask-type:alpha" maskUnits="userSpaceOnUse" x="0" y="0" width="30" height="18">
<path fill-rule="evenodd" clip-rule="evenodd" d="M0 0.707275H29.315V17.6607H0V0.707275Z" fill="white"/>
</mask>
<g mask="url(#mask0_2_2)">
<path fill-rule="evenodd" clip-rule="evenodd" d="M27.0706 14.8957V3.9996C27.0706 2.66374 28.231 2.34847 29.1634 2.09513L29.315 2.05391V0.839018H22.8476L18.9172 11.8739L15.1599 0.839018H13.7664C12.5737 0.839018 11.2148 0.799454 10.0159 0.764654C8.99737 0.73524 8.0354 0.707275 7.31952 0.707275C2.80463 0.707275 -8.39233e-05 2.89615 -8.39233e-05 6.42028C-8.39233e-05 8.96813 1.7975 10.7475 4.37125 10.7475C6.76437 10.7475 8.78609 8.92712 8.78609 6.77221C8.78609 5.94323 8.23757 5.08586 7.31952 5.08586C6.04289 5.08586 5.31127 6.2384 5.17165 7.30954C5.15902 7.40752 5.14845 7.50715 5.13789 7.60679C5.05482 8.39124 4.98294 9.06839 4.04086 9.06839C2.94383 9.06839 1.83313 8.13604 1.83313 6.3544C1.83313 4.41451 3.27443 2.34205 7.31952 2.34205C9.62336 2.34205 10.5615 2.46405 10.5615 3.692V14.6977C10.5615 15.8954 9.33812 16.2014 8.44472 16.4244L8.36724 16.4439V17.6605H14.705V16.4603L14.6207 16.445C14.3004 16.3876 12.7025 16.0354 12.7025 14.7416V4.27345C12.7025 4.25418 12.7123 4.24279 12.7311 4.23968C12.7498 4.23761 12.7628 4.24424 12.7694 4.2635L17.4666 17.4985C17.4993 17.5952 17.5903 17.6605 17.6926 17.6605H18.7082C18.8095 17.6605 18.9003 17.5963 18.9332 17.5018L23.6753 4.52595C23.6815 4.50835 23.6946 4.50027 23.7132 4.504C23.7321 4.5071 23.7416 4.51829 23.7416 4.53755V14.8297C23.7416 15.9435 22.9257 16.1405 21.9807 16.3681L21.7611 16.4215V17.6607L29.1859 17.6547V16.4574L29.044 16.4276C28.306 16.2718 27.0706 16.0112 27.0706 14.8957" fill="#FAF4ED"/>
</g>
<path fill-rule="evenodd" clip-rule="evenodd" d="M34.8593 7.70278C35.6437 7.69781 36.3128 8.09076 36.7901 8.85056C37.2913 9.64868 37.5646 10.8188 37.5805 12.2349C37.5961 13.6208 37.3193 14.7924 36.7803 15.6225C36.2902 16.3771 35.6054 16.7974 34.8518 16.8059C34.8398 16.8061 34.8278 16.8061 34.8156 16.8061C33.0387 16.8061 32.1211 15.3263 32.0881 12.4068C32.0448 8.54502 33.5711 7.71728 34.8593 7.70278M34.8667 6.39778C33.1512 6.41725 31.6846 7.05007 30.6257 8.22789C29.603 9.36551 29.0506 10.9553 29.0703 12.7044C29.1075 16.0243 31.3756 18.1546 34.8582 18.1546C34.8901 18.1546 34.9229 18.1542 34.955 18.154C36.5257 18.1364 37.983 17.5512 39.0585 16.5061C40.158 15.4383 40.7537 13.979 40.7359 12.3975C40.6951 8.76977 38.332 6.35863 34.8667 6.39778" fill="#FAF4ED"/>
<path fill-rule="evenodd" clip-rule="evenodd" d="M54.1276 16.4904C53.5764 16.3518 52.8433 16.0259 52.8433 14.8013V9.81207C52.8433 7.56209 51.709 6.42135 49.4721 6.42135C48.2924 6.42135 47.1918 6.77536 46.1126 7.50202V6.72917H44.982L44.957 6.74905C44.5064 7.1012 43.914 7.48255 43.3322 7.79471C42.8294 8.05757 42.2459 8.35524 41.6827 8.55886L41.6209 8.58123V9.6996L42.3787 9.77313C42.637 9.81042 43.2379 10.0319 43.2379 11.2847V14.955C43.2379 15.9891 42.5274 16.2621 41.6688 16.4908L41.5992 16.5092V17.6425H47.4891V16.6035L47.4781 16.5281L47.4085 16.5098C46.831 16.3592 46.1126 16.1722 46.1126 15.1089V9.0674C46.5812 8.7109 47.4487 8.14789 48.2483 8.14789C49.3739 8.14789 49.9688 8.77636 49.9688 9.96598V15.0209C49.9688 16.0759 49.3499 16.2894 48.6334 16.5368L48.5704 16.5583V17.6425H54.1982V16.5082L54.1276 16.4904Z" fill="#FAF4ED"/>
<path fill-rule="evenodd" clip-rule="evenodd" d="M89.2683 14.3522C88.349 14.3522 87.59 13.5936 87.59 12.6739C87.59 11.7544 88.349 10.9956 89.2683 10.9956C90.1878 10.9956 90.9468 11.7544 90.9468 12.6739C90.9468 13.5936 90.1878 14.3522 89.2683 14.3522" fill="#FAF4ED"/>
<path fill-rule="evenodd" clip-rule="evenodd" d="M57.5756 20.7026C58.6731 18.8696 59.6106 16.9993 60.3921 15.3828C60.712 17.6044 60.9612 19.3686 61.131 20.7026H57.5756ZM92.2449 26.4206L92.1689 26.4009C91.5936 26.2518 90.8778 26.0664 90.8778 25.0143V16.3493H90.8649H89.6345L89.6069 16.3706C89.1562 16.7213 88.5636 17.1006 87.9815 17.4109C87.4783 17.6725 86.8944 17.9687 86.3312 18.1715L86.2639 18.1956V19.3191L87.0295 19.4181C87.2863 19.4548 87.8831 19.6737 87.8831 20.9143V24.8612C87.8831 25.4313 87.2693 26.3479 86.1764 26.3431C84.9692 26.3379 84.348 25.3658 84.348 24.6737V19.7036C84.348 17.4569 83.2162 16.3176 80.984 16.3176C80.9819 16.3176 80.9798 16.3178 80.978 16.3178C80.9757 16.3178 80.9734 16.3176 80.9711 16.3176C79.3846 16.3176 78.3665 16.9363 77.3973 17.6437C76.8513 16.7638 75.8783 16.3176 74.5029 16.3176C74.501 16.3176 74.499 16.3178 74.4971 16.3178C74.4948 16.3178 74.4928 16.3176 74.4903 16.3176C73.3549 16.3176 72.3561 16.6526 71.3643 17.3682V16.6244H71.3519V16.6242H70.1206L70.093 16.6455C69.6419 16.996 69.0488 17.3757 68.4664 17.6864C67.9272 17.9671 67.3538 18.2534 66.815 18.4472L66.7477 18.4715V19.599L67.5139 19.6727C67.7706 19.7096 68.368 19.9289 68.368 21.1703V24.8266C68.368 25.9624 67.1974 26.3404 66.6346 26.3404C65.8945 26.3404 64.9835 26.0301 64.7662 24.5084L62.8016 10.3848H61.1194C60.1879 12.3796 54.1584 27.7925 47.2723 27.7925C44.6397 27.7925 43.6595 25.6129 44.1907 24.6342C44.4543 24.1486 44.8015 23.9985 45.0992 23.788C45.4385 23.5477 45.7894 23.2991 46.0989 22.6489C46.3911 22.0347 46.329 21.5295 46.2254 21.214C46.0916 20.8064 45.8068 20.4735 45.4439 20.301C44.8788 20.0323 44.2199 20.064 43.5889 20.3907C42.9652 20.7132 42.4285 21.2973 42.0776 22.0354C41.7389 22.7473 41.5788 23.4845 41.5788 24.2058C41.5788 27.3279 44.3031 29.4438 47.3334 29.4708C50.7824 29.5014 53.8634 26.7388 56.8535 22.1957L61.2139 22.1945C61.5014 24.3164 61.5264 24.8047 61.5266 24.8092L61.5285 24.8245C61.5484 24.9231 61.5484 25.0259 61.5484 25.1083C61.5484 26.124 60.743 26.3203 59.8904 26.5283L59.8212 26.5451L59.7141 27.5095L66.7554 27.512L66.3471 27.5122H72.7438V26.4691L72.7331 26.3874L72.6568 26.3678C72.081 26.2186 71.3643 26.0328 71.3643 24.9801V18.9595C71.7434 18.6101 72.5373 18.0562 73.2725 18.0541C74.3894 18.0572 74.98 18.6803 74.98 19.8568V24.8925C74.98 25.9375 74.3625 26.1492 73.6476 26.3943L73.5786 26.4179V27.512H73.5911V27.5122H79.2465V26.3678L79.1694 26.3485C78.6199 26.211 77.8891 25.888 77.8891 24.6737V19.7036C77.8891 19.4455 77.8688 19.1824 77.8317 18.9558C78.1449 18.6937 78.9403 18.0564 79.7318 18.0541C80.8485 18.0572 81.4387 18.6803 81.4387 19.8568V24.8925C81.4387 25.9375 80.8214 26.1492 80.1065 26.3943L80.0376 26.4179V27.5122H80.0502V27.5124L86.3956 27.5008H92.2561V26.5022L92.2449 26.4206Z" fill="#FAF4ED"/>
</svg>
