<svg width="187" height="58" viewBox="0 0 187 58" fill="none" xmlns="http://www.w3.org/2000/svg">
<mask id="mask0_5_238" style="mask-type:alpha" maskUnits="userSpaceOnUse" x="0" y="0" width="60" height="35">
<path fill-rule="evenodd" clip-rule="evenodd" d="M0 0H59.1115V34.1853H0V0Z" fill="white"/>
</mask>
<g mask="url(#mask0_5_238)">
<path fill-rule="evenodd" clip-rule="evenodd" d="M54.586 28.61V6.63874C54.586 3.94507 56.9259 3.30935 58.8059 2.79851L59.1116 2.71539V0.26565H46.0706L38.1453 22.5168L30.5689 0.26565H27.7591C25.354 0.26565 22.614 0.185871 20.1964 0.1157C18.1426 0.056388 16.2029 0 14.7594 0C5.65542 0 -8.39233e-05 4.41371 -8.39233e-05 11.5199C-8.39233e-05 16.6574 3.62462 20.2454 8.8144 20.2454C13.64 20.2454 17.7166 16.5747 17.7166 12.2295C17.7166 10.5579 16.6106 8.8291 14.7594 8.8291C12.1851 8.8291 10.7099 11.1531 10.4283 13.313C10.4029 13.5106 10.3816 13.7115 10.3603 13.9124C10.1928 15.4942 10.0478 16.8596 8.14818 16.8596C5.93611 16.8596 3.69646 14.9796 3.69646 11.387C3.69646 7.47537 6.60274 3.2964 14.7594 3.2964C19.4049 3.2964 21.2966 3.54242 21.2966 6.01848V28.2107C21.2966 30.6258 18.8297 31.2427 17.0282 31.6925L16.872 31.7318V34.1849H29.6516V31.7648L29.4816 31.7339C28.8359 31.6182 25.6138 30.9081 25.6138 28.2992V7.19093C25.6138 7.15208 25.6335 7.12911 25.6715 7.12284C25.7091 7.11867 25.7354 7.13203 25.7487 7.17088L35.2203 33.8583C35.2862 34.0533 35.4696 34.1849 35.676 34.1849H37.7239C37.9281 34.1849 38.1111 34.0554 38.1775 33.8649L47.7396 7.70009C47.7522 7.66459 47.7785 7.6483 47.8161 7.65581C47.8541 7.66208 47.8733 7.68464 47.8733 7.72348V28.4768C47.8733 30.7227 46.228 31.1199 44.3225 31.5789L43.8798 31.6867V34.1853L58.8514 34.1732V31.759L58.5653 31.6988C57.0771 31.3847 54.586 30.8593 54.586 28.61Z" fill="#006468"/>
</g>
<path fill-rule="evenodd" clip-rule="evenodd" d="M70.2912 14.1057C71.873 14.0957 73.2222 14.8881 74.1845 16.4201C75.1953 18.0295 75.7462 20.389 75.7784 23.2443C75.8097 26.0391 75.2517 28.4015 74.1649 30.0752C73.1766 31.5969 71.7957 32.4444 70.2762 32.4615C70.252 32.4619 70.2277 32.4619 70.2031 32.4619C66.6202 32.4619 64.7698 29.4779 64.7034 23.591C64.6161 15.8041 67.6936 14.135 70.2912 14.1057ZM70.3063 11.4743C66.847 11.5136 63.8897 12.7896 61.7545 15.1646C59.6924 17.4586 58.5784 20.6643 58.6181 24.1913C58.6933 30.8856 63.2665 35.1811 70.2891 35.1811C70.3535 35.1811 70.4195 35.1803 70.4842 35.1798C73.6515 35.1443 76.59 33.9644 78.7586 31.8571C80.9757 29.7039 82.177 26.7613 82.1411 23.5723C82.0588 16.2573 77.2938 11.3954 70.3063 11.4743Z" fill="#006468"/>
<path fill-rule="evenodd" clip-rule="evenodd" d="M109.144 31.8254C108.033 31.546 106.555 30.8889 106.555 28.4196V18.3591C106.555 13.8222 104.267 11.522 99.7569 11.522C97.3781 11.522 95.159 12.2358 92.9828 13.7011V12.1427H90.703L90.6525 12.1828C89.744 12.8928 88.5494 13.6618 87.3762 14.2912C86.3624 14.8213 85.1858 15.4215 84.0501 15.8321L83.9256 15.8772V18.1323L85.4535 18.2806C85.9744 18.3558 87.1861 18.8023 87.1861 21.3285V28.7295C87.1861 30.8146 85.7534 31.3651 84.0221 31.8262L83.8818 31.8634V34.1486H95.7583V32.0535L95.7362 31.9014L95.5959 31.8647C94.4313 31.561 92.9828 31.1838 92.9828 29.0398V16.8575C93.9276 16.1387 95.6769 15.0034 97.2892 15.0034C99.5589 15.0034 100.758 16.2707 100.758 18.6695V28.8623C100.758 30.9896 99.5104 31.4202 98.0656 31.919L97.9387 31.9624V34.1486H109.287V31.8613L109.144 31.8254Z" fill="#006468"/>
<path fill-rule="evenodd" clip-rule="evenodd" d="M180.003 27.5138C178.149 27.5138 176.619 25.9843 176.619 24.1297C176.619 22.2756 178.149 20.7456 180.003 20.7456C181.857 20.7456 183.388 22.2756 183.388 24.1297C183.388 25.9843 181.857 27.5138 180.003 27.5138Z" fill="#006468"/>
<path fill-rule="evenodd" clip-rule="evenodd" d="M116.097 40.3192C118.31 36.6231 120.2 32.8518 121.776 29.5922C122.421 34.0719 122.924 37.6293 123.266 40.3192H116.097ZM186.005 51.8489L185.852 51.8092C184.692 51.5084 183.248 51.1346 183.248 49.0132V31.5408H183.223H180.741L180.686 31.5839C179.777 32.291 178.582 33.0558 177.408 33.6815C176.394 34.209 175.216 34.8063 174.081 35.2152L173.945 35.2637V37.5292L175.489 37.7289C176.007 37.8028 177.21 38.2443 177.21 40.7459V48.7045C177.21 49.854 175.972 51.7023 173.769 51.6926C171.334 51.6822 170.082 49.722 170.082 48.3265V38.3045C170.082 33.7742 167.799 31.4769 163.298 31.4769C163.294 31.4769 163.29 31.4774 163.286 31.4774C163.282 31.4774 163.277 31.4769 163.272 31.4769C160.073 31.4769 158.02 32.7246 156.066 34.151C154.965 32.3766 153.003 31.4769 150.23 31.4769C150.226 31.4769 150.222 31.4774 150.218 31.4774C150.213 31.4774 150.209 31.4769 150.204 31.4769C147.915 31.4769 145.901 32.1523 143.901 33.5955V32.0955H143.876V32.0951H141.393L141.338 32.1381C140.428 32.8449 139.232 33.6105 138.057 34.237C136.97 34.803 135.814 35.3802 134.728 35.7712L134.592 35.8201V38.0935L136.137 38.2422C136.654 38.3166 137.859 38.7589 137.859 41.2621V48.6347C137.859 50.9249 135.499 51.6872 134.364 51.6872C132.871 51.6872 131.034 51.0615 130.596 47.9932L126.635 19.5139H123.243C121.365 23.5363 109.206 54.6152 95.3212 54.6152C90.0128 54.6152 88.0363 50.2203 89.1073 48.2467C89.639 47.2677 90.339 46.9648 90.9393 46.5405C91.6234 46.0559 92.331 45.5547 92.955 44.2436C93.5444 43.0051 93.4191 41.9864 93.2102 41.3503C92.9404 40.5282 92.3661 39.857 91.6343 39.5091C90.4948 38.9673 89.1662 39.0313 87.8939 39.6899C86.6362 40.3403 85.554 41.5182 84.8464 43.0064C84.1635 44.442 83.8406 45.9285 83.8406 47.3829C83.8406 53.6783 89.3341 57.945 95.4444 57.9993C102.399 58.0611 108.612 52.4904 114.641 43.3297L123.433 43.3272C124.013 47.606 124.064 48.5905 124.064 48.5997L124.068 48.6306C124.108 48.8294 124.108 49.0366 124.108 49.2028C124.108 51.2507 122.484 51.6467 120.765 52.0661L120.625 52.0999L120.409 54.0446L134.607 54.0497L133.784 54.0501H146.683V51.9466L146.661 51.782L146.507 51.7424C145.346 51.4416 143.901 51.0669 143.901 48.9443V36.8041C144.665 36.0995 146.266 34.9826 147.749 34.9784C150.001 34.9847 151.192 36.2411 151.192 38.6136V48.7676C151.192 50.8748 149.947 51.3017 148.505 51.7958L148.366 51.8434V54.0497H148.391V54.0501H159.795V51.7424L159.639 51.7035C158.531 51.4262 157.058 50.775 157.058 48.3265V38.3045C157.058 37.784 157.017 37.2536 156.942 36.7966C157.574 36.2682 159.177 34.983 160.773 34.9784C163.025 34.9847 164.215 36.2411 164.215 38.6136V48.7676C164.215 50.8748 162.97 51.3017 161.529 51.7958L161.39 51.8434V54.0501H161.415V54.0505L174.21 54.0271H186.028V52.0134L186.005 51.8489Z" fill="#006468"/>
</svg>
